<?xml version="1.0"?><svg id="Layer_1" xmlns="http://www.w3.org/2000/svg" version="1.1" viewBox="0 0 65.25 65.25" xmlns:c2pa="http://c2pa.org/manifest"><metadata><c2pa:manifest>AAAWgmp1bWIAAAAeanVtZGMycGEAEQAQgAAAqgA4m3EDYzJwYQAAABZcanVtYgAAAEdqdW1kYzJtYQARABCAAACqADibcQN1cm46YzJwYTplNjMzZmI5MC02ZjEzLTQ4NDgtYWJhNi0xYWRkMjU3Y2UwZDAAAAADl2p1bWIAAAApanVtZGMyYXMAEQAQgAAAqgA4m3EDYzJwYS5hc3NlcnRpb25zAAAAALxqdW1iAAAARGp1bWRjYm9yABEAEIAAAKoAOJtxE2MycGEuaW5ncmVkaWVudC52MwAAAAAYYzJzaGATMe1Kh4SDOF+DjqXpQCEAAABwY2JvcqNpZGM6Zm9ybWF0bWltYWdlL3N2Zyt4bWxqaW5zdGFuY2VJRHgseG1wOmlpZDpmOTg3ZDk4Zi05NmU2LTQ2YWYtOWI4My00NjBmOTI3ODcyNWJscmVsYXRpb25zaGlwaHBhcmVudE9mAAAB4mp1bWIAAABBanVtZGNib3IAEQAQgAAAqgA4m3ETYzJwYS5hY3Rpb25zLnYyAAAAABhjMnNolpbmy+F8OKB9KmP/omYxDwAAAZljYm9yomdhY3Rpb25zgqJmYWN0aW9ua2MycGEub3BlbmVkanBhcmFtZXRlcnOha2luZ3JlZGllbnRzgaJjdXJseC1zZWxmI2p1bWJmPWMycGEuYXNzZXJ0aW9ucy9jMnBhLmluZ3JlZGllbnQudjNkaGFzaFggDoDNLiseQZHf/RWJv+NeB+hmgEPNnWoLPjleNnE5haKkZmFjdGlvbngdY29tLmFudGhyb3BpYy5jbGF1ZGUucHJvdmlkZWRqcGFyYW1ldGVyc6F4H2NvbS5hbnRocm9waWMub3JpZ2luLWNvbmZpZGVuY2VndW5rbm93bmtkZXNjcmlwdGlvbnhmQ2xhdWRlIHByb3ZpZGVkIHRoaXMgZmlsZSBhdCB0aGUgcmVxdWVzdCBvZiBhIHVzZXIgYW5kIG1heSBoYXZlIGNyZWF0ZWQgb3IgbW9kaWZpZWQgdGhlIGZpbGUgY29udGVudHMubXNvZnR3YXJlQWdlbnShZG5hbWVmQ2xhdWRlcmFsbEFjdGlvbnNJbmNsdWRlZPUAAADIanVtYgAAAEBqdW1kY2JvcgARABCAAACqADibcRNjMnBhLmhhc2guZGF0YQAAAAAYYzJzaP5jmRcNmiWv5ilzvjqGF2gAAACAY2JvcqVjYWxnZnNoYTI1NmNwYWRNAAAAAAAAAAAAAAAAAGRoYXNoWCBxFYzPGdAbwFnWBdO9pjB5jPMEGaDd2X3ePR7UDeCc8mRuYW1lbmp1bWJmIG1hbmlmZXN0amV4Y2x1c2lvbnOBomVzdGFydBixZmxlbmd0aBkeBAAAAj5qdW1iAAAAJ2p1bWRjMmNsABEAEIAAAKoAOJtxA2MycGEuY2xhaW0udjIAAAACD2Nib3KlY2FsZ2ZzaGEyNTZpc2lnbmF0dXJleE1zZWxmI2p1bWJmPS9jMnBhL3VybjpjMnBhOmU2MzNmYjkwLTZmMTMtNDg0OC1hYmE2LTFhZGQyNTdjZTBkMC9jMnBhLnNpZ25hdHVyZWppbnN0YW5jZUlEeCx4bXA6aWlkOmM0NTRhNzJiLWFlNTEtNDIzYS1iMGQxLWZhNTAyZWQwMGJhY3JjcmVhdGVkX2Fzc2VydGlvbnODomN1cmx4LXNlbGYjanVtYmY9YzJwYS5hc3NlcnRpb25zL2MycGEuaW5ncmVkaWVudC52M2RoYXNoWCAOgM0uKx5Bkd/9FYm/414H6GaAQ82dags+OV42cTmFoqJjdXJseCpzZWxmI2p1bWJmPWMycGEuYXNzZXJ0aW9ucy9jMnBhLmFjdGlvbnMudjJkaGFzaFggm71gFKu8Z76NKXNvhyV7KrtSf87S7ALXc6iCuz7Tme+iY3VybHgpc2VsZiNqdW1iZj1jMnBhLmFzc2VydGlvbnMvYzJwYS5oYXNoLmRhdGFkaGFzaFgg7BIO6rAbtZxyux6j47fALvT20hJCvIZ2Ovz6rRLx+uN0Y2xhaW1fZ2VuZXJhdG9yX2luZm+jZG5hbWVvQW50aHJvcGljIEZpbGVzZ3ZlcnNpb25lMS4wLjBrc3BlY1ZlcnNpb25lMi40LjAAABA4anVtYgAAAChqdW1kYzJjcwARABCAAACqADibcQNjMnBhLnNpZ25hdHVyZQAAABAIY2JvctKEWQISogEmGCFZAgowggIGMIIBjaADAgECAhRA5aAK7sI50L64g/oGQgU9Z1UTADAKBggqhkjOPQQDAzBJMRcwFQYDVQQKEw5BbnRocm9waWMsIFBCQzEuMCwGA1UEAxMlQW50aHJvcGljIENvbnRlbnQgQ3JlZGVudGlhbHMgUm9vdCBDQTAeFw0yNjA4MDcxODQzNTZaFw0yODA4MDYxOTQzNTZaMEQxFzAVBgNVBAoTDkFudGhyb3BpYywgUEJDMSkwJwYDVQQDEyBBbnRocm9waWMgQ2xhdWRlIENvbnRlbnQgU2lnbmluZzBZMBMGByqGSM49AgEGCCqGSM49AwEHA0IABJh6CmvLUBgFFNU0vUKlOVtE6djd17L5SuwX0LemFisBM3dkd/3cyjxFA3Qo5S46fX0/ihY0VZ7mfb9KF703t5OjWDBWMA4GA1UdDwEB/wQEAwIHgDAVBgNVHSUEDjAMBgorBgEEAYPoXgIBMAwGA1UdEwEB/wQCMAAwHwYDVR0jBBgwFoAUzlHiBIFOZFsj+OPEz5o+nMHXXMIwCgYIKoZIzj0EAwMDZwAwZAIwMXMdFJ4BetLLVY7ORuE9noqbbAZOZn/aArXyTwFAZfKrPzxF2vPoJNf1+UCdg1XGAjBwX1zd9WGqYkqmL5SFqw1QySjr1zJfpJM9+1rdDwSPLMOPOjKuiXjoU/pUUeG9RwmhY3BhZFkNngAAAAAAAAAAAAAAAAAAAAAAAAAAAAAAAAAAAAAAAAAAAAAAAAAAAAAAAAAAAAAAAAAAAAAAAAAAAAAAAAAAAAAAAAAAAAAAAAAAAAAAAAAAAAAAAAAAAAAAAAAAAAAAAAAAAAAAAAAAAAAAAAAAAAAAAAAAAAAAAAAAAAAAAAAAAAAAAAAAAAAAAAAAAAAAAAAAAAAAAAAAAAAAAAAAAAAAAAAAAAAAAAAAAAAAAAAAAAAAAAAAAAAAAAAAAAAAAAAAAAAAAAAAAAAAAAAAAAAAAAAAAAAAAAAAAAAAAAAAAAAAAAAAAAAAAAAAAAAAAAAAAAAAAAAAAAAAAAAAAAAAAAAAAAAAAAAAAAAAAAAAAAAAAAAAAAAAAAAAAAAAAAAAAAAAAAAAAAAAAAAAAAAAAAAAAAAAAAAAAAAAAAAAAAAAAAAAAAAAAAAAAAAAAAAAAAAAAAAAAAAAAAAAAAAAAAAAAAAAAAAAAAAAAAAAAAAAAAAAAAAAAAAAAAAAAAAAAAAAAAAAAAAAAAAAAAAAAAAAAAAAAAAAAAAAAAAAAAAAAAAAAAAAAAAAAAAAAAAAAAAAAAAAAAAAAAAAAAAAAAAAAAAAAAAAAAAAAAAAAAAAAAAAAAAAAAAAAAAAAAAAAAAAAAAAAAAAAAAAAAAAAAAAAAAAAAAAAAAAAAAAAAAAAAAAAAAAAAAAAAAAAAAAAAAAAAAAAAAAAAAAAAAAAAAAAAAAAAAAAAAAAAAAAAAAAAAAAAAAAAAAAAAAAAAAAAAAAAAAAAAAAAAAAAAAAAAAAAAAAAAAAAAAAAAAAAAAAAAAAAAAAAAAAAAAAAAAAAAAAAAAAAAAAAAAAAAAAAAAAAAAAAAAAAAAAAAAAAAAAAAAAAAAAAAAAAAAAAAAAAAAAAAAAAAAAAAAAAAAAAAAAAAAAAAAAAAAAAAAAAAAAAAAAAAAAAAAAAAAAAAAAAAAAAAAAAAAAAAAAAAAAAAAAAAAAAAAAAAAAAAAAAAAAAAAAAAAAAAAAAAAAAAAAAAAAAAAAAAAAAAAAAAAAAAAAAAAAAAAAAAAAAAAAAAAAAAAAAAAAAAAAAAAAAAAAAAAAAAAAAAAAAAAAAAAAAAAAAAAAAAAAAAAAAAAAAAAAAAAAAAAAAAAAAAAAAAAAAAAAAAAAAAAAAAAAAAAAAAAAAAAAAAAAAAAAAAAAAAAAAAAAAAAAAAAAAAAAAAAAAAAAAAAAAAAAAAAAAAAAAAAAAAAAAAAAAAAAAAAAAAAAAAAAAAAAAAAAAAAAAAAAAAAAAAAAAAAAAAAAAAAAAAAAAAAAAAAAAAAAAAAAAAAAAAAAAAAAAAAAAAAAAAAAAAAAAAAAAAAAAAAAAAAAAAAAAAAAAAAAAAAAAAAAAAAAAAAAAAAAAAAAAAAAAAAAAAAAAAAAAAAAAAAAAAAAAAAAAAAAAAAAAAAAAAAAAAAAAAAAAAAAAAAAAAAAAAAAAAAAAAAAAAAAAAAAAAAAAAAAAAAAAAAAAAAAAAAAAAAAAAAAAAAAAAAAAAAAAAAAAAAAAAAAAAAAAAAAAAAAAAAAAAAAAAAAAAAAAAAAAAAAAAAAAAAAAAAAAAAAAAAAAAAAAAAAAAAAAAAAAAAAAAAAAAAAAAAAAAAAAAAAAAAAAAAAAAAAAAAAAAAAAAAAAAAAAAAAAAAAAAAAAAAAAAAAAAAAAAAAAAAAAAAAAAAAAAAAAAAAAAAAAAAAAAAAAAAAAAAAAAAAAAAAAAAAAAAAAAAAAAAAAAAAAAAAAAAAAAAAAAAAAAAAAAAAAAAAAAAAAAAAAAAAAAAAAAAAAAAAAAAAAAAAAAAAAAAAAAAAAAAAAAAAAAAAAAAAAAAAAAAAAAAAAAAAAAAAAAAAAAAAAAAAAAAAAAAAAAAAAAAAAAAAAAAAAAAAAAAAAAAAAAAAAAAAAAAAAAAAAAAAAAAAAAAAAAAAAAAAAAAAAAAAAAAAAAAAAAAAAAAAAAAAAAAAAAAAAAAAAAAAAAAAAAAAAAAAAAAAAAAAAAAAAAAAAAAAAAAAAAAAAAAAAAAAAAAAAAAAAAAAAAAAAAAAAAAAAAAAAAAAAAAAAAAAAAAAAAAAAAAAAAAAAAAAAAAAAAAAAAAAAAAAAAAAAAAAAAAAAAAAAAAAAAAAAAAAAAAAAAAAAAAAAAAAAAAAAAAAAAAAAAAAAAAAAAAAAAAAAAAAAAAAAAAAAAAAAAAAAAAAAAAAAAAAAAAAAAAAAAAAAAAAAAAAAAAAAAAAAAAAAAAAAAAAAAAAAAAAAAAAAAAAAAAAAAAAAAAAAAAAAAAAAAAAAAAAAAAAAAAAAAAAAAAAAAAAAAAAAAAAAAAAAAAAAAAAAAAAAAAAAAAAAAAAAAAAAAAAAAAAAAAAAAAAAAAAAAAAAAAAAAAAAAAAAAAAAAAAAAAAAAAAAAAAAAAAAAAAAAAAAAAAAAAAAAAAAAAAAAAAAAAAAAAAAAAAAAAAAAAAAAAAAAAAAAAAAAAAAAAAAAAAAAAAAAAAAAAAAAAAAAAAAAAAAAAAAAAAAAAAAAAAAAAAAAAAAAAAAAAAAAAAAAAAAAAAAAAAAAAAAAAAAAAAAAAAAAAAAAAAAAAAAAAAAAAAAAAAAAAAAAAAAAAAAAAAAAAAAAAAAAAAAAAAAAAAAAAAAAAAAAAAAAAAAAAAAAAAAAAAAAAAAAAAAAAAAAAAAAAAAAAAAAAAAAAAAAAAAAAAAAAAAAAAAAAAAAAAAAAAAAAAAAAAAAAAAAAAAAAAAAAAAAAAAAAAAAAAAAAAAAAAAAAAAAAAAAAAAAAAAAAAAAAAAAAAAAAAAAAAAAAAAAAAAAAAAAAAAAAAAAAAAAAAAAAAAAAAAAAAAAAAAAAAAAAAAAAAAAAAAAAAAAAAAAAAAAAAAAAAAAAAAAAAAAAAAAAAAAAAAAAAAAAAAAAAAAAAAAAAAAAAAAAAAAAAAAAAAAAAAAAAAAAAAAAAAAAAAAAAAAAAAAAAAAAAAAAAAAAAAAAAAAAAAAAAAAAAAAAAAAAAAAAAAAAAAAAAAAAAAAAAAAAAAAAAAAAAAAAAAAAAAAAAAAAAAAAAAAAAAAAAAAAAAAAAAAAAAAAAAAAAAAAAAAAAAAAAAAAAAAAAAAAAAAAAAAAAAAAAAAAAAAAAAAAAAAAAAAAAAAAAAAAAAAAAAAAAAAAAAAAAAAAAAAAAAAAAAAAAAAAAAAAAAAAAAAAAAAAAAAAAAAAAAAAAAAAAAAAAAAAAAAAAAAAAAAAAAAAAAAAAAAAAAAAAAAAAAAAAAAAAAAAAAAAAAAAAAAAAAAAAAAAAAAAAAAAAAAAAAAAAAAAAAAAAAAAAAAAAAAAAAAAAAAAAAAAAAAAAAAAAAAAAAAAAAAAAAAAAAAAAAAAAAAAAAAAAAAAAAAAAAAAAAAAAAAAAAAAAAAAAAAAAAAAAAAAAAAAAAAAAAAAAAAAAAAAAAAAAAAAAAAAAAAAAAAAAAAAAAAAAAAAAAAAAAAAAAAAAAAAAAAAAAAAAAAAAAAAAAAAAAAAAAAAAAAAAAAAAAAAAAAAAAAAAAAAAAAAAAAAAAAAAAAAAAAAAAAAAAAAAAAAAAAAAAAAAAAAAAAAAAAAAAAAAAAAAAAAAAAAAAAAAAAAAAAAAAAAAAAAAAAAAAAAAAAAAAAAAAAAAAAAAAAAAAAAAAAAAAAAAAAAAAAAAAAAAAAAAAAAAAAAAAAAAAAAAAAAAAAAAAAAAAAAAAAAAAAAAAAAAAAAAAAAAAAAAAAAAAAAAAAAAAAAAAAAAAAAAAAAAAAAAAAAAAAAAAAAAAAAAAAAAAAAAAAAAAAAAAAAAAAAAAAAAAAAAAAAAAAAAAAAAAAAAAAAAAAAAAAAAAAAAAAAAAAAAAAAAAAAAAAAAAAAAAAAAAAAAAAAAAAAAAAAAAAAAAAAAAAAAAAAAAAAAAAAAAAAAAAAAAAAAAAAAAAAAAAAAAAAAAAAAAAAAAAAAAAAAAAAAAAAAAAAAAAAAAAAAAAAAAAAAAAAAAAAAAAAAAAAAAAAAAAAAAAAAAAAAAAAAAAAAAAAAAAAAAAAAAAAAAAAAAAAAAAAAAAAAAAAAAAAAAAAAAAAAAAAAAAAAAAAAAAAAAAAAAAAAAAAAAAAAAAAAAAAAAAAAAAAAAAAAAAAAAAAAAAAAAAAAAAAAAAAAAAAAAAAAAAAAAAAAAAAAAAAAAAAAAAAAAAAAAAAAAAAAAAAAAAAAAAAAAAAAAAAAAAAAAAAAAAAAAAAAAAAAAAAAAAAAAAAAAAAAAAAAAAAAAAAAAAAAAAAAAAAAAAAAAAAAAAAAAAAAAAAAAAAAAAAAAAAAAAAAAAAAAAAAAAAAAAAAAAAAAAAAAAAAAAAAAAAAAAAAAAAAAAAAAAAAAAAAAAAAAAAAAAAAAAAAAAAAAAAAAAAAAAAAAAAAAAAAAAAAAAAAAAAAAAAAAAAAAAAAAAAAAAAAAAAAAAAAAAAAAAAAAAAAAAAAAAAAAAAAAAAAAAAAAAAAAAAAAAAAAAAAAAAAAAAAAAAAAAAAAAAAAAAAAAAAAAAAAAAAAAAAAAAAAAAAAAAAAAAAAAAAAAAAAAAAAAAAAAAAAAAAAAAAAAAAAAAAAAAAAAAAAAAAAAAAAAAAAAAAAAAAAAAAAAAAPZYQCM/R1H4SxBzY0+PvTVSb0ZywKG0KqiPgOzfSa6giKUYJI2H3UKUQBSZg6qm+W1q21d3eDA3elTGJ/eQiP/JbzE=</c2pa:manifest></metadata>
  
  <path d="M44.69,22.72s0-.02,0-.04c0-.01,0-.03,0-.04,0-.14,0-.29-.01-.43,0,0,0-.02,0-.03,0-.04,0-.07,0-.11,0-.03,0-.06,0-.09,0-.07-.01-.14-.02-.22,0-.04,0-.08-.01-.12,0,0,0-.02,0-.02,0-.05,0-.1-.01-.15,0-.04-.01-.07-.02-.11-.02-.12-.04-.23-.06-.35,0-.04-.01-.09-.02-.13,0,0,0,0,0,0,0,0,0,0,0,0-.39-.08-.78-.13-1.17-.16-.03,0-.06,0-.09,0-.16-.01-.33-.02-.49-.03-.04,0-.08,0-.11,0-.16,0-.32,0-.48,0-.04,0-.08,0-.11,0-.16,0-.33.02-.49.03-.03,0-.06,0-.09,0-.39.04-.78.1-1.17.19-.2.05-.39.1-.59.15-.17.05-.34.11-.51.17-.05.02-.09.03-.14.05-.03.01-.06.02-.09.03-.13.05-.26.1-.39.15-.04.02-.08.04-.12.06-.09.04-.19.08-.28.13-.02,0-.03.02-.05.03-.08.04-.16.08-.24.12-.1.05-.19.1-.28.15-.08.04-.16.09-.24.14-.12.07-.24.14-.35.22-.05.03-.1.07-.15.1-.31.21-.62.45-.91.7-.01.01-.03.03-.04.04-.02.02-.04.04-.06.06h0s0,0,0,0l6.27,6.27h0s0,0,0,0c1.45-1.61,2.29-3.57,2.52-5.59,0,0,0,0,0,0,0,0,0,0,0,0,0,0,0-.02,0-.02.02-.18.03-.35.04-.53,0,0,0-.02,0-.03,0,0,0-.01,0-.02,0,0,0,0,0,0,0,0,0,0,0-.01,0-.01,0-.02,0-.03,0-.17.01-.34.01-.52Z"></path>
  <path d="M23.15,35.75h0c-2.17,2.4-2.97,5.61-2.41,8.61,0,0,0,0,0,0,0,0,0,0,0,0,3.01.61,6.25-.17,8.69-2.34h0s-6.27-6.28-6.27-6.28Z"></path>
  <path d="M20.67,22.71s0,.09,0,.13c0,.07,0,.15,0,.22,0,.03,0,.07,0,.1,0,.01,0,.03,0,.04,0,.05,0,.1,0,.16,0,.08.01.16.02.24,0,.1.02.2.03.29,0,.08.02.16.03.24,0,.03,0,.06.01.1,0,.01,0,.02,0,.03,0,.04.01.08.02.13,0,.04.02.07.02.11,0,.03.01.06.02.09.01.06.02.12.03.18,0,.03.01.07.02.1.02.07.03.15.05.22,0,.02,0,.04.01.06.03.12.06.23.09.35.02.07.04.13.06.2.03.08.05.16.08.25.01.03.02.07.03.1.03.07.05.15.08.22.02.04.03.08.05.13,0,.01.01.03.02.05.02.06.05.12.07.18.02.04.03.08.05.11.01.03.02.05.04.08,0,0,0,.02.01.03.01.03.03.06.04.09.04.1.09.19.14.29,0,.01.01.03.02.04,0,0,0,.01.01.02.02.04.04.07.06.11.06.11.12.23.19.34.01.02.02.04.03.06.01.02.03.05.04.07,0,0,0,.02.01.03.2.33.41.65.65.95,0,0,0,.01.01.02.01.01.02.03.03.04,0,0,.01.01.02.02.11.14.23.28.34.42,0,0,0,.01.01.02,0,0,.01.02.02.02,0,0,0,0,0,0,.01.02.03.03.04.05h0s0,0,0,0l6.27-6.27h0s0,0,0,0c-.02-.02-.04-.04-.06-.06,0,0-.02-.02-.03-.03-.05-.04-.09-.08-.14-.12-.08-.06-.15-.13-.23-.19-.02-.01-.04-.03-.06-.04-.01-.01-.03-.02-.04-.03-.04-.03-.09-.07-.13-.1-.1-.08-.2-.15-.31-.22-.01-.01-.03-.02-.04-.03-.02-.01-.04-.03-.07-.04-.04-.03-.08-.06-.13-.08-.07-.04-.13-.09-.2-.13-.05-.03-.1-.06-.15-.09-.02-.01-.04-.02-.06-.03-.05-.03-.1-.05-.14-.08-.07-.04-.13-.07-.2-.11-.03-.02-.06-.03-.09-.05-.03-.02-.07-.04-.1-.05-.06-.03-.11-.06-.17-.08-.07-.03-.15-.07-.22-.1-.04-.02-.07-.03-.11-.05-.03-.01-.06-.03-.09-.04-.02,0-.03-.02-.05-.02-.11-.05-.23-.09-.34-.14-.05-.02-.11-.04-.16-.06-.02,0-.03-.01-.05-.02-.02,0-.03-.01-.05-.02-.08-.03-.16-.05-.23-.08-.04-.01-.08-.03-.12-.04-.07-.02-.15-.04-.22-.06-.01,0-.03,0-.04-.01-.07-.02-.13-.03-.2-.05-.01,0-.02,0-.03,0-.06-.01-.12-.03-.18-.04h0c-.07-.02-.15-.03-.22-.05,0,0,0,0-.01,0-.04,0-.07-.01-.11-.02,0,0-.02,0-.03,0-.07-.01-.14-.03-.21-.04,0,0-.02,0-.02,0-.14-.02-.27-.04-.41-.06-1.05-.13-2.13-.09-3.17.11-.03.13-.05.27-.07.4,0,.02,0,.05-.01.07,0,.04,0,.08-.01.11,0,.02,0,.04,0,.06,0,.06-.02.12-.02.18,0,.06-.01.12-.02.17-.01.11-.02.22-.03.33,0,.06,0,.12,0,.19,0,.05,0,.1,0,.15,0,.09,0,.19,0,.28Z"></path>
  <path d="M43.91,38.88c-.04-.11-.09-.23-.13-.34-.07-.17-.15-.34-.24-.51,0-.01-.01-.03-.02-.04-.39-.77-.88-1.5-1.48-2.16h0s-6.27,6.27-6.27,6.27h0c2.42,2.18,5.65,2.97,8.65,2.38.35-1.79.21-3.65-.41-5.38-.03-.07-.06-.15-.09-.22Z"></path>
  <path d="M41.24,35.03h0c-.49-.44-1.01-.82-1.55-1.14-.03-.02-.06-.03-.08-.05-.15-.09-.3-.17-.45-.25-.05-.03-.11-.05-.16-.08-.04-.02-.09-.04-.14-.06,0,0,0,0,0,0-.06-.03-.13-.06-.19-.09-.07-.03-.14-.06-.21-.09-.01,0-.02,0-.03-.01-.02,0-.04-.02-.06-.03-.08-.03-.15-.06-.23-.09-.04-.02-.09-.03-.13-.05-.02,0-.04-.01-.06-.02-.04-.01-.07-.02-.11-.04-.11-.04-.21-.07-.32-.11-.03,0-.06-.02-.08-.03-.03-.01-.07-.02-.1-.03-.05-.01-.1-.03-.15-.04-.02,0-.05-.01-.07-.02-.1-.03-.2-.05-.29-.07-.02,0-.03,0-.05-.01-.1-.02-.19-.04-.29-.06,0,0-.02,0-.02,0,1.19-.22,2.36-.65,3.42-1.31.02,0,.03-.02.05-.03.17-.1.33-.21.5-.33.05-.04.11-.08.16-.12.08-.06.15-.11.23-.17.11-.09.23-.18.34-.28.05-.04.1-.09.16-.14h0s-6.28-6.28-6.28-6.28h0s-.04.05-.06.07c-.13.15-.26.3-.38.45,0,0,0,.01-.01.02-.25.32-.47.65-.68.98-.01.02-.03.04-.04.07-.09.15-.18.31-.26.47-.02.04-.04.08-.06.12-.08.15-.15.31-.22.46-.02.04-.03.08-.05.12-.06.13-.11.26-.16.39-.02.05-.04.09-.05.14-.05.15-.1.3-.15.45-.02.06-.04.12-.05.17-.04.15-.09.3-.12.45-.01.05-.02.1-.03.14-.01.06-.03.12-.04.19,0-.02,0-.04-.01-.05-.03-.17-.07-.34-.12-.5-.02-.07-.04-.14-.05-.21-.02-.08-.05-.17-.07-.25-.04-.14-.09-.28-.14-.42-.02-.05-.04-.11-.06-.16-.05-.14-.11-.29-.17-.43,0-.02-.02-.04-.02-.06-.08-.17-.16-.34-.24-.51,0-.02-.02-.04-.03-.05-.38-.75-.87-1.47-1.45-2.12h0s-6.27,6.28-6.27,6.28h0s.08.07.12.11c.13.11.26.22.39.32.04.03.08.06.12.09.12.09.24.18.36.26.04.03.08.05.11.08.13.09.26.17.4.25.05.03.11.07.16.1.13.08.27.15.4.22.07.03.13.07.2.1.09.04.18.09.27.13.12.05.24.11.36.15.07.03.14.06.21.08.32.12.64.23.97.31.01,0,.03,0,.04.01.22.06.45.11.68.15-.14.03-.28.06-.42.09-.01,0-.03,0-.04,0-.02,0-.05.01-.07.02-.1.02-.19.05-.29.07-.05.01-.11.03-.16.04-.11.03-.21.07-.32.1-.04.01-.09.03-.13.04-.06.02-.11.04-.17.06-.02,0-.05.02-.07.03-.03.01-.07.02-.1.04-.05.02-.1.04-.14.06-.05.02-.1.04-.16.06-.04.02-.09.03-.13.05-.02,0-.04.02-.06.03-.03.01-.05.02-.08.04-.1.05-.2.09-.3.14-.03.02-.07.03-.1.05-.09.05-.18.1-.28.15-.04.02-.07.04-.11.06-.07.04-.14.08-.21.12,0,0,0,0,0,0-.03.02-.06.04-.09.05-.06.04-.12.07-.17.11-.03.02-.06.04-.09.06,0,0,0,0,0,0-.06.04-.12.07-.17.11-.07.05-.14.1-.2.15-.07.05-.14.1-.21.15-.03.03-.07.05-.1.08-.09.07-.18.14-.27.22-.04.03-.08.06-.11.1,0,0,0,0-.01.01,0,0-.01,0-.02.01,0,0-.02.02-.03.02-.01.01-.03.02-.04.04h0s0,0,0,0l6.27,6.27h0s0,0,0,0c.87-.97,1.53-2.07,1.95-3.24,0,0,0-.01,0-.02.06-.17.12-.34.17-.51.01-.04.02-.08.04-.12.05-.16.09-.32.13-.48.01-.05.02-.09.03-.14.01-.05.03-.11.04-.16,0,.04.02.08.03.12.01.06.02.11.04.17h0c.01.07.03.13.04.19.02.06.03.12.05.18,0,.02,0,.04.01.05.03.11.06.21.09.32,0,0,0,.02,0,.03.02.06.04.12.06.18.01.04.02.08.04.12.02.07.05.14.08.21,0,.02.01.03.02.05.02.07.05.13.08.19.02.06.04.11.07.17.02.05.04.1.07.15.02.03.03.07.05.1.01.03.03.06.04.08.04.09.08.18.13.27,0,.02.02.04.03.06.03.05.05.1.08.15.03.06.06.11.09.17.03.06.07.12.1.18,0,0,0,0,0,0,.03.04.05.09.08.13.06.09.11.18.17.27.04.06.08.13.13.19.09.13.18.25.27.37.03.04.07.09.1.13.11.14.22.28.34.41.01.01.02.03.04.04.02.02.03.04.05.06h0s0,0,0,0l6.27-6.27h0Z"></path>
</svg>